<?xml version="1.0" encoding="utf-8"?>
<!-- Generator: Adobe Illustrator 18.1.1, SVG Export Plug-In . SVG Version: 6.00 Build 0)  -->
<svg version="1.1" id="Layer_1" xmlns="http://www.w3.org/2000/svg" xmlns:xlink="http://www.w3.org/1999/xlink" x="0px" y="0px"
   viewBox="0 0 138.8 166.2" enable-background="new 0 0 138.8 166.2" xml:space="preserve">
<g id="z-1">
  <path d="M112.1,156.2l-1.3-1.6l3.8-22.4l-12.8,10.7l-1.2-1.5l17.1-14.2l1.2,1.5l-3.8,22.4l13.5-11.2l1.3,1.6L112.1,156.2z"/>
</g>
<g id="z-3">
  <path d="M32.4,88.6l-2.3-5.2L66,23.7l-50.4,22L13.5,41l67-29.3l2.1,4.7L46.8,76.2l53-23.2l2.3,5.2L32.4,88.6z"/>
</g>
<g id="z-2">
  <path d="M71.8,133.1l-1.8-3.2L88,89l-30.2,17l-1.7-3l40.1-22.6l1.7,3l-18,40.8l31.7-17.9l1.8,3.2L71.8,133.1z"/>
</g>
</svg>
